<?xml version="1.0" encoding="UTF-8"?>
<!DOCTYPE svg PUBLIC "-//W3C//DTD SVG 1.1//EN" "http://www.w3.org/Graphics/SVG/1.1/DTD/svg11.dtd">
<!-- Creator: CorelDRAW X7 -->
<svg xmlns="http://www.w3.org/2000/svg" xml:space="preserve" width="210mm" height="297mm" version="1.1" style="shape-rendering:geometricPrecision; text-rendering:geometricPrecision; image-rendering:optimizeQuality; fill-rule:evenodd; clip-rule:evenodd"
viewBox="0 0 21000 29700"
 xmlns:xlink="http://www.w3.org/1999/xlink">
 <defs>
  <style type="text/css">
   <![CDATA[
    .fil1 {fill:black}
    .fil6 {fill:#040304}
    .fil0 {fill:#262142}
    .fil3 {fill:#795C2A}
    .fil5 {fill:#C3E9F5}
    .fil4 {fill:#E47304}
    .fil2 {fill:#FB9C04}
    .fil7 {fill:#FEFCFC}
   ]]>
  </style>
 </defs>
 <g id="Слой_x0020_1">
  <metadata id="CorelCorpID_0Corel-Layer"/>
  <g id="_2128761521424">
   <path class="fil0" d="M11279 13351c233,-37 425,41 561,217 39,50 59,54 100,98 206,220 359,670 412,965 39,216 26,311 -89,436 -8,9 -11,14 -19,24 -19,26 -82,72 -110,87 -192,106 -413,-92 -515,-234 -24,-33 -65,-70 -92,-105 -25,-34 -53,-81 -79,-117 -90,-121 -203,-381 -261,-526 -34,-86 -80,-200 -101,-292 -24,-111 -35,-245 -11,-358 25,-119 82,-175 204,-195zm2521 2722c29,-235 9,-559 -34,-777 -10,-47 -22,-131 -36,-171 -65,-188 -102,-42 -245,-165l-98 -107c-30,-34 -55,-90 -87,-119l-75 -129c-56,-108 -109,-252 -161,-353l-104 -203c-45,-89 -82,-190 -138,-273 -141,-211 -132,-431 -161,-463 -12,-14 -39,-30 -58,-46l-628 -399 -283 -125c-24,-11 -53,-11 -81,-24 -249,-108 -559,-171 -839,-188 -262,-15 -529,-7 -779,34 -108,17 -231,37 -335,76l-306 104c-66,24 -92,33 -148,58l-275 135c-140,57 -253,157 -375,241 -169,118 -330,251 -456,416l-55 66c-55,75 -125,141 -173,220l-119 188c-74,120 -130,243 -196,370 -60,116 -107,237 -154,359 -83,218 -63,206 -90,425 -15,118 -35,230 -61,349 -51,236 -21,541 19,768 20,113 30,242 69,344 20,51 34,97 52,155 63,200 129,402 240,580 17,27 22,41 41,62l97 134c1,1 3,3 4,5l163 214c52,80 124,156 194,224l90 114c16,27 26,35 47,56 46,47 153,160 232,182 67,18 11,1 64,36 16,11 54,28 67,37l66 62c3,2 12,8 15,10 10,8 17,12 29,22l120 85c19,13 14,10 32,20 30,16 6,1 30,20l399 216c299,97 610,192 939,190 226,-1 1017,-30 1216,-125 57,-26 174,-49 237,-70 107,-36 191,-84 216,-92 52,-17 31,-4 69,-35 37,-30 81,-45 128,-78l102 -52c23,-8 16,-4 32,-19 63,-62 252,-166 300,-212l55 -48c72,-53 156,-122 215,-196 37,-46 94,-86 103,-102 34,-57 49,-73 92,-113l30 -38c33,-56 84,-87 109,-132 17,-30 26,-36 42,-61l206 -357c6,-8 5,-4 12,-15 4,-6 7,-12 9,-17 1,-2 7,-17 8,-19 1,-3 3,-14 5,-20 8,-26 2,-15 17,-32 26,-32 110,-213 136,-266 1,-2 2,-4 3,-6 55,-127 80,-268 116,-400 10,-37 22,-45 29,-70 11,-39 13,-118 28,-181 9,-41 9,-41 11,-91 2,-50 8,-137 15,-188z"/>
   <path class="fil1" d="M8651 20136c82,1 120,-69 158,-108 162,-166 280,-227 536,-258 357,-44 554,-69 802,213 258,293 230,433 270,792 20,177 11,177 -286,234 -505,97 -1077,32 -1559,-67 -192,-40 -276,-89 -366,-224 -177,-267 -228,-337 -238,-642 -8,-248 28,-133 44,-247 13,-102 53,-132 104,-186 75,-80 300,-155 418,-169 70,-9 81,-10 79,54 -1,51 -5,103 3,154 10,74 39,167 61,231 62,175 -21,95 -26,223zm115 -209c-28,-211 -95,-356 17,-541 99,-163 151,-440 194,-462 67,-12 243,73 300,98 374,160 293,58 160,403 -42,108 -67,193 -162,232 -45,19 -100,28 -149,47 -166,65 -294,217 -360,223zm-1367 -2489c90,-45 113,32 198,168 50,81 108,157 148,254 64,156 94,504 104,690 12,237 7,500 -91,693 -84,167 -273,332 -442,364 26,-71 92,-144 129,-207 40,-67 75,-148 100,-233 212,-727 -158,-1535 -146,-1729zm6859 21c-23,108 -43,210 -68,314 -33,137 -19,147 -211,63 -91,-40 -174,-72 -270,-107 -325,-117 -306,-83 -139,-380 49,-86 67,-196 196,-147l407 158c50,20 99,34 85,99zm-7129 -1021c24,40 196,576 226,666 22,67 81,169 74,229 -94,64 -431,180 -562,232 -130,51 -194,49 -275,-40 -60,-65 -117,-150 -152,-251 -78,-226 -71,-439 131,-587 57,-41 476,-240 558,-249zm7784 2049c-10,-207 87,-478 145,-684 91,-323 375,-1272 546,-1525 28,-43 163,-232 214,-204 70,85 34,254 2,352 -135,414 -401,1189 -569,1552 -55,119 -158,281 -232,401 -31,51 -47,91 -106,108zm-8052 -2046c-135,67 -303,68 -461,246 -193,217 -113,560 47,795 39,57 117,167 165,194 95,52 450,-99 584,-107 8,42 34,108 48,152 106,324 178,939 110,1244 -57,252 -209,476 -380,614 -41,33 -72,54 -136,69 -111,26 -254,1 -337,-47 -244,-142 -527,-610 -599,-1001 -84,-449 253,-696 162,-966 -71,-206 -100,-411 -264,-531 -112,-83 -217,-119 -333,-266 -33,-42 -55,-73 -86,-120 -40,-61 -104,-198 -126,-276 -68,-236 -97,-431 -55,-697 51,-318 191,-589 438,-760 97,-67 194,-92 321,-51 123,41 147,77 230,173 79,90 86,74 189,213 87,119 342,622 405,801 20,57 80,262 78,321zm6939 -368c-7,51 -13,138 -15,188 -2,50 -2,50 -11,91 -15,63 -17,142 -28,181 -7,25 -19,33 -29,70 -36,132 -61,273 -116,400 -1,2 -2,4 -3,6 -26,53 -110,234 -136,266 -15,17 -9,6 -17,32 -2,6 -4,17 -5,20 -1,2 -7,17 -8,19 -2,5 -5,11 -9,17 -7,11 -6,7 -12,15l-206 357c-16,25 -25,31 -42,61 -25,45 -76,76 -109,132l-30 38c-43,40 -58,56 -92,113 -9,16 -66,56 -103,102 -59,74 -143,143 -215,196l-55 48c-48,46 -237,150 -300,212 -16,15 -9,11 -32,19l-102 52c-47,33 -91,48 -128,78 -38,31 -17,18 -69,35 -25,8 -109,56 -216,92 -63,21 -180,44 -237,70 -199,95 -990,124 -1216,125 -329,2 -640,-93 -939,-190l-399 -216c-24,-19 0,-4 -30,-20 -18,-10 -13,-7 -32,-20l-120 -85c-12,-10 -19,-14 -29,-22 -3,-2 -12,-8 -15,-10l-66 -62c-13,-9 -51,-26 -67,-37 -53,-35 3,-18 -64,-36 -79,-22 -186,-135 -232,-182 -21,-21 -31,-29 -47,-56l-90 -114c-70,-68 -142,-144 -194,-224l-163 -214c-1,-2 -3,-4 -4,-5l-97 -134c-19,-21 -24,-35 -41,-62 -111,-178 -177,-380 -240,-580 -18,-58 -32,-104 -52,-155 -39,-102 -49,-231 -69,-344 -40,-227 -70,-532 -19,-768 26,-119 46,-231 61,-349 27,-219 7,-207 90,-425 47,-122 94,-243 154,-359 66,-127 122,-250 196,-370l119 -188c48,-79 118,-145 173,-220l55 -66c126,-165 287,-298 456,-416 122,-84 235,-184 375,-241l275 -135c56,-25 82,-34 148,-58l306 -104c104,-39 227,-59 335,-76 250,-41 517,-49 779,-34 280,17 590,80 839,188 28,13 57,13 81,24l283 125 628 399c19,16 46,32 58,46 29,32 20,252 161,463 56,83 93,184 138,273l104 203c52,101 105,245 161,353l75 129c32,29 57,85 87,119l98 107c143,123 180,-23 245,165 14,40 26,124 36,171 43,218 63,542 34,777zm1094 1941c-8,-154 166,-663 235,-842 103,-266 97,-417 279,-816 83,-182 107,-193 209,-331 15,-21 61,-111 107,-63 25,25 -82,124 -134,208 -46,75 -80,159 -118,241 -217,466 -328,849 -479,1336 -19,62 -62,234 -99,267zm-201 493c-53,-10 -137,-53 -181,-76 -63,-33 -96,-65 -133,-114 -86,-114 -148,-156 -140,-362 14,-336 155,-500 151,-907 -3,-422 -45,-794 296,-1046 224,-166 266,-101 414,-115 115,-12 386,-12 479,32 -11,46 -126,202 -161,267 -46,88 -96,205 -134,303 -238,613 -349,1038 -506,1665 -27,107 -68,247 -85,353zm-8277 -3580c207,21 371,177 463,335 80,139 178,435 202,595 8,60 72,417 22,474 -39,-4 -22,9 -37,-25l-50 -146c-26,-70 -45,-127 -64,-201 -91,-352 -151,-423 -328,-715l-152 -234c-15,-17 -21,-19 -33,-34 -22,-28 -15,-19 -23,-49zm-334 -50c154,-18 191,71 310,214 153,185 295,424 400,651 39,83 131,321 112,417 -28,-14 -73,-128 -89,-166 -26,-63 -53,-122 -81,-183 -57,-123 -112,-239 -176,-355 -70,-125 -134,-209 -211,-311 -34,-45 -89,-102 -130,-135l-121 -109c-16,-19 -2,-2 -14,-23zm6697 -1493c67,-11 168,37 216,65 65,37 114,78 168,131 85,84 183,216 254,336 126,213 152,428 206,675 15,69 47,185 50,251 -40,32 -56,36 -109,13 -40,-18 -72,-35 -92,-62 -89,-119 -254,-446 -324,-582 -88,-171 -218,-426 -295,-603 -28,-63 -84,-152 -74,-224zm-4502 -176c-28,-28 -77,-174 -91,-211 -112,-287 -63,-271 71,-388 47,-42 105,-87 165,-125 122,-78 688,-288 846,-336 148,-45 319,-79 476,-113 194,-43 830,-225 1008,-98 58,41 75,109 101,198 23,75 54,152 58,236 -298,4 -538,-8 -832,42 -119,20 -244,49 -353,82 -113,33 -237,50 -345,83 -110,34 -208,81 -317,119 -101,36 -215,93 -294,142 -90,55 -182,120 -256,181l-237 188zm-156 -704c4,-41 196,-306 230,-357l240 -351c41,20 100,136 118,174 125,262 115,203 -98,282 -125,47 -221,99 -332,165 -35,20 -123,85 -158,87zm941 -630c95,-33 183,-48 298,-42 222,13 162,104 104,128 -57,25 -193,72 -256,86 -88,21 -101,-33 -146,-172zm-43 -104c-24,-32 -107,-161 -85,-203 19,-36 146,-90 202,-105 111,-29 180,-26 224,53 22,39 74,177 84,224l-425 31zm-260 -435c60,-104 445,-296 475,1l-367 158c-28,-37 -89,-117 -108,-159zm-65 -84c-21,-13 -53,-54 -70,-77 -61,-81 52,-123 164,-215 46,-38 112,-108 170,-43 31,36 107,101 120,154 -53,41 -135,43 -204,77 -112,55 -113,108 -180,104zm-205 -203c-41,-22 -82,-66 -41,-121 24,-31 72,-50 115,-73 51,-28 210,-128 251,-134 49,41 42,74 -2,108 -34,26 -69,49 -106,75 -40,28 -178,133 -217,145zm51 -1161c34,-25 156,-244 184,-301 30,-60 46,-116 73,-175 93,-211 302,-614 425,-788 12,11 6,-8 18,29 13,38 14,204 15,246 8,293 25,538 25,846 0,304 -20,285 209,225 1,-2 2,-5 2,-6l628 -221c26,-8 167,-52 191,-49l27 10c22,35 -32,73 -56,98 -102,104 -583,530 -602,576 33,29 702,232 832,270 83,25 229,52 251,115l-841 234c-87,22 -217,39 -260,100 -22,67 440,572 494,709 -40,27 -222,53 -282,68 -308,74 -250,-50 -361,-287 -39,-84 -71,-155 -111,-232 -88,-169 -166,-292 -275,-426 -45,-56 -277,-345 -327,-366 -84,-35 -221,-8 -298,25 -215,91 -253,292 -172,455 56,116 263,228 468,566 43,70 218,415 214,482 -166,127 -190,-19 -306,-262 -21,-44 -34,-110 -56,-157 -61,7 -87,61 -120,106 -195,266 -365,547 -545,824 -29,46 -51,102 -109,109 3,-74 61,-228 81,-318 23,-107 47,-214 70,-322 24,-111 46,-214 69,-324 14,-62 84,-277 52,-324 -18,-17 -59,8 -76,17 -219,111 -233,126 -493,226 -91,35 -544,224 -610,206 -3,-34 22,-48 43,-64l766 -653c34,-30 93,-71 112,-101 -10,-28 -21,-38 -40,-59 -67,-2 -43,27 -121,25 -275,-6 -705,2 -931,-63 69,-47 865,-253 997,-313 -35,-92 -507,-280 -659,-358 -76,-40 -135,-83 -208,-125 -142,-82 -304,-147 -447,-228 -73,-41 -142,-82 -217,-126 -60,-35 -171,-84 -185,-144 175,32 365,91 537,133l1076 277c110,29 437,132 536,120 7,-30 -152,-602 -172,-681l-147 -668c-1,-13 -1,-9 0,-22 4,-35 33,-43 61,23l412 777c47,86 109,249 159,266zm-398 227c-264,-38 -1394,-343 -1768,-430 -182,-42 -426,-111 -610,-133 36,85 122,119 205,164l1183 647c82,44 160,86 237,131l173 101c7,4 23,13 27,16l28 24c-78,51 -424,139 -543,177l-411 127c-63,19 -80,19 -102,81 49,42 195,26 265,29 182,7 724,8 841,39 -6,13 0,4 -10,16l-538 514c-47,42 -94,80 -137,128 -45,50 -97,85 -141,132l-207 203c-23,23 -55,35 -60,76 94,26 276,-97 362,-141 142,-73 997,-433 1121,-461 -2,216 -101,520 -152,737 -29,121 -57,234 -84,352 -28,127 -70,250 -34,376 55,-17 84,-59 110,-103 22,-38 46,-114 87,-135 27,57 42,119 62,176 158,446 147,304 -119,639 -72,90 -129,187 -199,280 -37,49 -70,91 -105,143 -189,283 -332,679 -424,1021 -20,73 -73,347 -105,382 -53,-22 -99,-210 -128,-263 -159,-284 -448,-391 -786,-418 -220,-18 -507,52 -652,151 -141,96 -271,256 -351,452 -247,600 -108,1375 388,1763 221,172 233,46 343,461 39,149 41,195 -18,328 -42,95 -77,196 -96,307 -37,225 7,499 68,702 90,305 140,297 278,526 89,146 251,278 449,355 233,90 442,82 677,0 426,-148 672,-437 709,-899 19,-242 -26,-516 -42,-760 60,22 136,107 179,145l172 152c120,97 248,182 376,275 304,224 286,106 72,585 -20,45 -28,82 -73,90 -41,7 -113,-3 -162,0 -95,5 -185,27 -261,65 -60,30 -152,92 -196,128 -141,117 -187,213 -188,466 -1,342 107,738 369,935 407,305 1127,286 1651,210 635,-92 682,-109 602,-634 -27,-180 -62,-374 -154,-495 -23,-31 -48,-63 -74,-89 -84,-84 -144,-175 -246,-242 -197,-129 -326,-72 -560,-92 12,-46 51,-121 73,-168 27,-56 50,-105 78,-162 79,-162 111,-122 341,-90 309,44 578,72 900,41 715,-69 1240,-299 1741,-680 141,-106 262,-215 385,-342 75,-76 267,-311 335,-401 103,-136 181,-76 334,-21 119,43 231,98 352,135 249,78 149,52 212,276 37,131 120,216 214,273 102,62 221,99 336,143 185,70 230,-45 299,-154 139,-218 239,-383 345,-630 167,-390 363,-1006 515,-1426 57,-158 55,-248 3,-406 -29,-85 -23,-93 -103,-136 -47,-26 -115,-60 -174,-74 -237,-57 -639,-50 -849,49 -78,36 -218,169 -261,227 -282,378 -204,772 -223,1222 -82,2 -335,-116 -430,-155 -195,-80 -147,-48 -58,-384 28,-106 55,-219 73,-329 40,-245 52,-482 31,-737 -56,-711 -95,-698 -231,-1350 -47,-228 -104,-407 -211,-584 -86,-142 -255,-317 -393,-402 -186,-114 -222,-67 -513,-283 -318,-236 -662,-419 -1052,-530 -450,-128 -424,-55 -492,-294 -28,-97 -55,-215 -90,-304 -44,-110 -122,-143 -235,-168 -118,-27 -239,-21 -358,-5 -124,17 -151,-50 -236,-152 -38,-46 -331,-428 -335,-462 -8,-64 62,-72 107,-88 161,-58 794,-231 945,-246 84,-9 95,-19 135,-65 -35,-77 -160,-92 -264,-121 -99,-28 -196,-60 -301,-93 -198,-60 -411,-121 -595,-190 27,-55 131,-154 172,-194l195 -181c95,-95 197,-181 299,-266 33,-28 65,-63 70,-120 -69,-49 -212,13 -292,34 -101,27 -200,55 -302,83 -134,37 -488,157 -596,168 -22,-239 -30,-461 -31,-704 0,-123 -2,-245 -5,-368 -2,-103 21,-261 -33,-337 -73,21 -80,69 -116,136 -110,209 -526,1041 -620,1152 -7,-6 -5,-4 -14,-13 -34,-37 -63,-88 -87,-135 -28,-55 -56,-107 -85,-163l-341 -668c-37,-73 -141,-307 -193,-309 -53,-3 -4,158 3,190 101,482 253,971 328,1449z"/>
   <path class="fil2" d="M7940 8845c6,79 33,175 52,253 8,32 8,60 15,94 27,116 52,228 81,346 49,196 97,394 159,585 5,16 9,25 12,41l2 33c-10,72 -475,-73 -531,-87 -171,-45 -352,-90 -529,-139 -177,-49 -352,-84 -525,-133 -93,-27 -455,-128 -530,-133 128,81 265,159 407,238 147,81 307,140 436,223 72,47 119,78 205,120l337 158c81,41 289,112 287,215 -47,32 -389,127 -465,149 -97,27 -384,105 -460,142 72,38 448,37 561,37 93,0 208,6 291,5 54,-1 60,-44 112,-19 29,14 59,60 66,88l-902 774c-2,1 -4,3 -5,4l-10 9c96,-6 337,-120 448,-162 191,-73 390,-142 563,-250 36,-23 97,-50 146,-56 48,102 -4,207 -28,310 -74,317 -132,651 -220,962l175 -261c142,-218 280,-451 442,-654 35,-44 44,-93 128,-93 30,33 36,101 57,147 21,49 45,90 66,139 42,96 80,243 203,153 -1,-67 -190,-425 -219,-479 -78,-139 -201,-271 -315,-378 -59,-57 -118,-109 -154,-188 -37,-81 -37,-208 -5,-291 35,-95 88,-128 178,-173 78,-39 195,-66 295,-48 74,14 110,59 150,108 175,218 346,395 479,650 83,159 147,311 212,481 41,107 98,128 225,92l285 -69c-17,-48 -43,-65 -67,-99 -23,-33 -49,-61 -70,-91 -91,-129 -188,-244 -281,-370 -156,-210 18,-199 255,-267 85,-25 171,-47 255,-70 69,-19 482,-121 510,-145 -77,-43 -427,-142 -534,-175l-470 -145c-153,-48 44,-165 137,-259 33,-34 158,-137 219,-200l150 -141c25,-25 92,-85 94,-112l-762 232 29 28c-59,20 -118,22 -174,41 -221,73 -147,-148 -152,-493 -1,-119 -24,-329 -23,-419 1,-142 8,-290 -14,-427 -28,19 -351,630 -390,724 -23,55 -41,116 -67,164 -54,104 -107,191 -164,290 -16,28 -23,52 -53,57 -28,4 -53,-24 -65,-39l-227 -447c-60,-106 -100,-189 -168,-288 -40,-59 -72,-159 -113,-221l-30 -55c-5,-15 -4,-11 -2,-16z"/>
   <path class="fil3" d="M6566 18004c152,-28 289,53 362,126 156,157 202,546 91,776 -150,309 -466,243 -646,69 -80,-77 -127,-193 -156,-338 -59,-299 113,-590 349,-633zm-769 -2497c146,-30 288,46 364,114 198,177 246,533 154,759 -36,90 -154,205 -249,238 -118,42 -295,-53 -368,-107 -222,-164 -225,-539 -155,-766 37,-119 125,-211 254,-238zm1064 934c2,-59 -58,-264 -78,-321 -63,-179 -318,-682 -405,-801 -103,-139 -110,-123 -189,-213 -83,-96 -107,-132 -230,-173 -127,-41 -224,-16 -321,51 -247,171 -387,442 -438,760 -42,266 -13,461 55,697 22,78 86,215 126,276 31,47 53,78 86,120 116,147 221,183 333,266 164,120 193,325 264,531 91,270 -246,517 -162,966 72,391 355,859 599,1001 83,48 226,73 337,47 64,-15 95,-36 136,-69 171,-138 323,-362 380,-614 68,-305 -4,-920 -110,-1244 -14,-44 -40,-110 -48,-152 -134,8 -489,159 -584,107 -48,-27 -126,-137 -165,-194 -160,-235 -240,-578 -47,-795 158,-178 326,-179 461,-246z"/>
   <path class="fil4" d="M8651 20136c5,-128 88,-48 26,-223 -22,-64 -51,-157 -61,-231 -8,-51 -4,-103 -3,-154 2,-64 -9,-63 -79,-54 -118,14 -343,89 -418,169 -51,54 -91,84 -104,186 -16,114 -52,-1 -44,247 10,305 61,375 238,642 90,135 174,184 366,224 482,99 1054,164 1559,67 297,-57 306,-57 286,-234 -40,-359 -12,-499 -270,-792 -248,-282 -445,-257 -802,-213 -256,31 -374,92 -536,258 -38,39 -76,109 -158,108z"/>
   <path class="fil4" d="M14693 18507c17,-106 58,-246 85,-353 157,-627 268,-1052 506,-1665 38,-98 88,-215 134,-303 35,-65 150,-221 161,-267 -93,-44 -364,-44 -479,-32 -148,14 -190,-51 -414,115 -341,252 -299,624 -296,1046 4,407 -137,571 -151,907 -8,206 54,248 140,362 37,49 70,81 133,114 44,23 128,66 181,76z"/>
   <path class="fil5" d="M8277 13208l237 -188c74,-61 166,-126 256,-181 79,-49 193,-106 294,-142 109,-38 207,-85 317,-119 108,-33 232,-50 345,-83 109,-33 234,-62 353,-82 294,-50 534,-38 832,-42 -4,-84 -35,-161 -58,-236 -26,-89 -43,-157 -101,-198 -178,-127 -814,55 -1008,98 -157,34 -328,68 -476,113 -158,48 -724,258 -846,336 -60,38 -118,83 -165,125 -134,117 -183,101 -71,388 14,37 63,183 91,211z"/>
   <path class="fil5" d="M11280 13454c-109,14 -121,72 -130,225 -6,126 -1,200 41,307 63,162 134,341 212,490 72,139 346,532 461,591 82,42 196,55 275,4 167,-109 173,-277 119,-510 -108,-466 -392,-1182 -978,-1107z"/>
   <path class="fil3" d="M7129 16438c-82,9 -501,208 -558,249 -202,148 -209,361 -131,587 35,101 92,186 152,251 81,89 145,91 275,40 131,-52 468,-168 562,-232 7,-60 -52,-162 -74,-229 -30,-90 -202,-626 -226,-666z"/>
   <path class="fil4" d="M7940 8845c-2,5 -3,1 2,16l30 55c41,62 73,162 113,221 68,99 108,182 168,288l227 447c12,15 37,43 65,39 30,-5 37,-29 53,-57 57,-99 110,-186 164,-290 26,-48 44,-109 67,-164 39,-94 362,-705 390,-724 22,137 15,285 14,427 -1,90 22,300 23,419 5,345 -69,566 152,493 56,-19 115,-21 174,-41l-29 -28 762 -232c-2,27 -69,87 -94,112l-150 141c-61,63 -186,166 -219,200 -93,94 -290,211 -137,259l470 145c107,33 457,132 534,175 -28,24 -441,126 -510,145 -84,23 -170,45 -255,70 -237,68 -411,57 -255,267 93,126 190,241 281,370 21,30 47,58 70,91 24,34 50,51 67,99l-285 69c-127,36 -184,15 -225,-92 -65,-170 -129,-322 -212,-481 -133,-255 -304,-432 -479,-650 -40,-49 -76,-94 -150,-108 -100,-18 -217,9 -295,48 -90,45 -143,78 -178,173 -32,83 -32,210 5,291 36,79 95,131 154,188 114,107 237,239 315,378 29,54 218,412 219,479 -123,90 -161,-57 -203,-153 -21,-49 -45,-90 -66,-139 -21,-46 -27,-114 -57,-147 -84,0 -93,49 -128,93 -162,203 -300,436 -442,654l-175 261c88,-311 146,-645 220,-962 24,-103 76,-208 28,-310 -49,6 -110,33 -146,56 -173,108 -372,177 -563,250 -111,42 -352,156 -448,162l10 -9c1,-1 3,-3 5,-4l902 -774c-7,-28 -37,-74 -66,-88 -52,-25 -58,18 -112,19 -83,1 -198,-5 -291,-5 -113,0 -489,1 -561,-37 76,-37 363,-115 460,-142 76,-22 418,-117 465,-149 2,-103 -206,-174 -287,-215l-337 -158c-86,-42 -133,-73 -205,-120 -129,-83 -289,-142 -436,-223 -142,-79 -279,-157 -407,-238 75,5 437,106 530,133 173,49 348,84 525,133 177,49 358,94 529,139 56,14 521,159 531,87l-2 -33c-3,-16 -7,-25 -12,-41 -62,-191 -110,-389 -159,-585 -29,-118 -54,-230 -81,-346 -7,-34 -7,-62 -15,-94 -19,-78 -46,-174 -52,-253zm600 1042c-50,-17 -112,-180 -159,-266l-412 -777c-28,-66 -57,-58 -61,-23 -1,13 -1,9 0,22l147 668c20,79 179,651 172,681 -99,12 -426,-91 -536,-120l-1076 -277c-172,-42 -362,-101 -537,-133 14,60 125,109 185,144 75,44 144,85 217,126 143,81 305,146 447,228 73,42 132,85 208,125 152,78 624,266 659,358 -132,60 -928,266 -997,313 226,65 656,57 931,63 78,2 54,-27 121,-25 19,21 30,31 40,59 -19,30 -78,71 -112,101l-766 653c-21,16 -46,30 -43,64 66,18 519,-171 610,-206 260,-100 274,-115 493,-226 17,-9 58,-34 76,-17 32,47 -38,262 -52,324 -23,110 -45,213 -69,324 -23,108 -47,215 -70,322 -20,90 -78,244 -81,318 58,-7 80,-63 109,-109 180,-277 350,-558 545,-824 33,-45 59,-99 120,-106 22,47 35,113 56,157 116,243 140,389 306,262 4,-67 -171,-412 -214,-482 -205,-338 -412,-450 -468,-566 -81,-163 -43,-364 172,-455 77,-33 214,-60 298,-25 50,21 282,310 327,366 109,134 187,257 275,426 40,77 72,148 111,232 111,237 53,361 361,287 60,-15 242,-41 282,-68 -54,-137 -516,-642 -494,-709 43,-61 173,-78 260,-100l841 -234c-22,-63 -168,-90 -251,-115 -130,-38 -799,-241 -832,-270 19,-46 500,-472 602,-576 24,-25 78,-63 56,-98l-27 -10c-24,-3 -165,41 -191,49l-628 221c0,1 -1,4 -2,6 -229,60 -209,79 -209,-225 0,-308 -17,-553 -25,-846 -1,-42 -2,-208 -15,-246 -12,-37 -6,-18 -18,-29 -123,174 -332,577 -425,788 -27,59 -43,115 -73,175 -28,57 -150,276 -184,301z"/>
   <path class="fil2" d="M14913 18487c59,-17 75,-57 106,-108 74,-120 177,-282 232,-401 168,-363 434,-1138 569,-1552 32,-98 68,-267 -2,-352 -51,-28 -186,161 -214,204 -171,253 -455,1202 -546,1525 -58,206 -155,477 -145,684z"/>
   <path class="fil6" d="M6913 18875c-300,-175 -157,-618 -91,-655 82,-45 148,205 164,280 32,150 0,284 -73,375zm-110 55c-96,92 -330,-83 -369,-373 -35,-271 130,-552 297,-423 -20,101 -102,180 -95,437 7,261 152,268 167,359zm-237 -926c-236,43 -408,334 -349,633 29,145 76,261 156,338 180,174 496,240 646,-69 111,-230 65,-619 -91,-776 -73,-73 -210,-154 -362,-126z"/>
   <path class="fil4" d="M8766 19927c66,-6 194,-158 360,-223 49,-19 104,-28 149,-47 95,-39 120,-124 162,-232 133,-345 214,-243 -160,-403 -57,-25 -233,-110 -300,-98 -43,22 -95,299 -194,462 -112,185 -45,330 -17,541z"/>
   <path class="fil3" d="M7745 17860c-40,-97 -98,-173 -148,-254 -85,-136 -108,-213 -198,-168 -12,194 358,1002 146,1729 -25,85 -60,166 -100,233 -37,63 -103,136 -129,207 169,-32 358,-197 442,-364 98,-193 103,-456 91,-693 -10,-186 -40,-534 -104,-690z"/>
   <path class="fil5" d="M13163 13580c-54,-53 -103,-94 -168,-131 -48,-28 -149,-76 -216,-65 -10,72 46,161 74,224 77,177 207,432 295,603 70,136 235,463 324,582 20,27 52,44 92,62 53,23 69,19 109,-13 -3,-66 -35,-182 -50,-251 -54,-247 -80,-462 -206,-675 -71,-120 -169,-252 -254,-336z"/>
   <path class="fil6" d="M6233 16364c-216,22 -334,-533 -163,-665 128,-100 316,472 163,665zm-66 111c-11,17 -37,42 -54,61 -47,-6 -196,-85 -238,-150 -53,-79 -72,-195 -98,-296 -39,-152 -23,-339 77,-454 42,-49 80,-46 146,-17 -27,80 -58,108 -74,217 -62,420 209,594 241,639zm-370 -968c-129,27 -217,119 -254,238 -70,227 -67,602 155,766 73,54 250,149 368,107 95,-33 213,-148 249,-238 92,-226 44,-582 -154,-759 -76,-68 -218,-144 -364,-114z"/>
   <path class="fil6" d="M11280 13454c586,-75 870,641 978,1107 54,233 48,401 -119,510 -79,51 -193,38 -275,-4 -115,-59 -389,-452 -461,-591 -78,-149 -149,-328 -212,-490 -42,-107 -47,-181 -41,-307 9,-153 21,-211 130,-225zm-1 -103c-122,20 -179,76 -204,195 -24,113 -13,247 11,358 21,92 67,206 101,292 58,145 171,405 261,526 26,36 54,83 79,117 27,35 68,72 92,105 102,142 323,340 515,234 28,-15 91,-61 110,-87 8,-10 11,-15 19,-24 115,-125 128,-220 89,-436 -53,-295 -206,-745 -412,-965 -41,-44 -61,-48 -100,-98 -136,-176 -328,-254 -561,-217z"/>
   <path class="fil2" d="M14258 17459c14,-65 -35,-79 -85,-99l-407 -158c-129,-49 -147,61 -196,147 -167,297 -186,263 139,380 96,35 179,67 270,107 192,84 178,74 211,-63 25,-104 45,-206 68,-314z"/>
   <path class="fil3" d="M6416 14927c8,30 1,21 23,49 12,15 18,17 33,34l152 234c177,292 237,363 328,715 19,74 38,131 64,201l50 146c15,34 -2,21 37,25 50,-57 -14,-414 -22,-474 -24,-160 -122,-456 -202,-595 -92,-158 -256,-314 -463,-335z"/>
   <path class="fil7" d="M8121 12504c35,-2 123,-67 158,-87 111,-66 207,-118 332,-165 213,-79 223,-20 98,-282 -18,-38 -77,-154 -118,-174l-240 351c-34,51 -226,316 -230,357z"/>
   <path class="fil3" d="M6803 18930c-15,-91 -160,-98 -167,-359 -7,-257 75,-336 95,-437 -167,-129 -332,152 -297,423 39,290 273,465 369,373z"/>
   <path class="fil3" d="M6167 16475c-32,-45 -303,-219 -241,-639 16,-109 47,-137 74,-217 -66,-29 -104,-32 -146,17 -100,115 -116,302 -77,454 26,101 45,217 98,296 42,65 191,144 238,150 17,-19 43,-44 54,-61z"/>
   <path class="fil7" d="M6233 16364c153,-193 -35,-765 -163,-665 -171,132 -53,687 163,665z"/>
   <path class="fil4" d="M14894 18014c37,-33 80,-205 99,-267 151,-487 262,-870 479,-1336 38,-82 72,-166 118,-241 52,-84 159,-183 134,-208 -46,-48 -92,42 -107,63 -102,138 -126,149 -209,331 -182,399 -176,550 -279,816 -69,179 -243,688 -235,842z"/>
   <path class="fil7" d="M6913 18875c73,-91 105,-225 73,-375 -16,-75 -82,-325 -164,-280 -66,37 -209,480 91,655z"/>
   <path class="fil7" d="M9019 11770l425 -31c-10,-47 -62,-185 -84,-224 -44,-79 -113,-82 -224,-53 -56,15 -183,69 -202,105 -22,42 61,171 85,203z"/>
   <path class="fil3" d="M6082 14877c12,21 -2,4 14,23l121 109c41,33 96,90 130,135 77,102 141,186 211,311 64,116 119,232 176,355 28,61 55,120 81,183 16,38 61,152 89,166 19,-96 -73,-334 -112,-417 -105,-227 -247,-466 -400,-651 -119,-143 -156,-232 -310,-214z"/>
   <path class="fil7" d="M8759 11335c19,42 80,122 108,159l367 -158c-30,-297 -415,-105 -475,-1z"/>
   <path class="fil7" d="M8694 11251c67,4 68,-49 180,-104 69,-34 151,-36 204,-77 -13,-53 -89,-118 -120,-154 -58,-65 -124,5 -170,43 -112,92 -225,134 -164,215 17,23 49,64 70,77z"/>
   <path class="fil7" d="M9062 11874c45,139 58,193 146,172 63,-14 199,-61 256,-86 58,-24 118,-115 -104,-128 -115,-6 -203,9 -298,42z"/>
   <path class="fil7" d="M8489 11048c39,-12 177,-117 217,-145 37,-26 72,-49 106,-75 44,-34 51,-67 2,-108 -41,6 -200,106 -251,134 -43,23 -91,42 -115,73 -41,55 0,99 41,121z"/>
  </g>
 </g>
</svg>
