<?xml version="1.0" encoding="UTF-8"?>
<!DOCTYPE svg PUBLIC "-//W3C//DTD SVG 1.1//EN" "http://www.w3.org/Graphics/SVG/1.1/DTD/svg11.dtd">
<!-- Creator: CorelDRAW X7 -->
<svg xmlns="http://www.w3.org/2000/svg" xml:space="preserve" width="210mm" height="297mm" version="1.1" style="shape-rendering:geometricPrecision; text-rendering:geometricPrecision; image-rendering:optimizeQuality; fill-rule:evenodd; clip-rule:evenodd"
viewBox="0 0 21000 29700"
 xmlns:xlink="http://www.w3.org/1999/xlink">
 <defs>
  <style type="text/css">
   <![CDATA[
    .fil2 {fill:black}
    .fil0 {fill:#010001}
    .fil3 {fill:#720910}
    .fil1 {fill:#CD100D}
    .fil6 {fill:#ECEEFB}
    .fil4 {fill:#ECEEFB}
    .fil5 {fill:white}
   ]]>
  </style>
 </defs>
 <g id="Слой_x0020_1">
  <metadata id="CorelCorpID_0Corel-Layer"/>
  <g id="_2128763479696">
   <path class="fil0" d="M5016 16525l-217 -1414c-175,-73 -431,-186 -647,-127 6,304 623,1432 864,1541zm153 -2714l0 140c114,87 30,-22 160,99 213,163 406,493 791,264 278,-166 331,-406 518,-701 107,18 368,262 592,332 301,94 575,61 817,-71 213,-115 371,-278 516,-434 129,-140 279,-494 432,-546 122,119 49,181 -37,311 -81,124 -140,224 -226,326 -294,352 -367,321 -523,467l-44 46c-5,6 -15,17 -21,26 74,213 179,242 205,557 53,627 -390,708 -633,248 -110,-208 -73,-434 -100,-686 -795,-65 -622,-246 -912,-271 -134,189 -220,380 -412,484 50,197 556,657 99,1165 -496,26 -570,-450 -531,-944 -33,-23 -38,-26 -92,-51 -48,-22 -63,-24 -119,-46 -356,-140 -303,-295 -521,-373 -36,996 7,2070 444,2983 267,557 631,1138 1035,1573 111,119 328,363 469,426l425 377c385,269 1357,799 1786,777 232,224 1354,189 1723,144 2659,-325 4355,-2067 5316,-4450 185,-457 327,-940 421,-1503 52,-308 75,-602 80,-924 3,-156 0,-318 -5,-475 -7,-186 3,-318 -86,-447 -150,55 -196,134 -359,246 -126,87 -246,141 -358,242 46,244 325,516 -157,477l-173 -418c-227,-506 -359,-762 -647,-1208 -969,-1501 -2551,-2756 -4625,-2731 -1528,18 -2722,594 -3590,1317 -863,720 -1608,2093 -1658,3252zm1114 1299c64,-185 97,-536 -208,-522 -60,167 -60,461 208,522zm1712 -424c100,-172 49,-504 -178,-526 -102,206 -59,511 178,526zm-2436 3057c-45,-83 -83,-151 -136,-258 -26,-51 -33,-77 -64,-134 -74,-138 -9,-67 -116,-158 -26,-88 -324,-243 -610,-618 -219,-288 -910,-1375 -740,-1718 198,-399 670,-58 933,-91 31,-798 76,-1579 335,-2244 712,-1825 2074,-3094 4254,-3479 2290,-406 4153,544 5441,2167 536,675 928,1512 1011,1609 308,-48 534,-371 790,-497 704,-165 432,1730 391,2065 -230,1883 -1465,4023 -2819,5035 -498,372 -1050,700 -1679,928 -1486,537 -2908,566 -4360,-105 -468,-217 -828,-458 -1207,-766 -546,-440 -1092,-1133 -1424,-1736z"/>
   <path class="fil1" d="M11074 16845c102,743 -28,1715 -350,2197 -305,454 -1369,1023 -1698,685 -140,-144 -101,-983 -52,-1225 40,-199 311,-691 429,-825 316,-361 1256,-933 1671,-832z"/>
   <path class="fil2" d="M11074 16845c-415,-101 -1355,471 -1671,832 -118,134 -389,626 -429,825 -50,242 -88,1081 52,1225 329,338 1393,-231 1698,-685 322,-482 452,-1454 350,-2197zm-3264 -39l121 24 -14 -120c1,-406 -104,-223 -368,-243l6 107 79 59c68,58 131,105 176,173zm-632 -213l-365 21c-248,98 -516,96 -505,125l885 849c297,45 90,-785 -15,-995zm1538 -148l113 45 14 -375c-234,69 -362,28 -375,182l248 148zm-2683 -86c441,18 792,-8 1224,-46 492,-103 797,-178 1245,-367 8,-4 18,-8 27,-12l421 -209c176,-96 1533,-1178 1666,-1179 157,-1 247,114 301,206 270,459 787,3347 -8,4435 -330,452 -660,635 -1256,846 -691,75 -859,-72 -1222,-383 -359,-308 -682,-635 -994,-944l-412 -415c-479,-495 -654,-760 -1065,-1225 -100,-113 -570,-535 -354,-705 146,-55 283,-7 427,-2zm4261 -1291c-22,130 143,1518 203,1622l522 -171c28,-327 -224,-1527 -365,-1705 -132,16 -311,141 -360,254zm-225 305l-47 -68c-243,115 -364,329 -605,398 2,379 499,974 771,1019 18,-523 -79,-873 -119,-1349zm-1311 1387c-349,-190 -318,-331 -594,-322 -29,501 112,603 -117,835 -104,-26 -185,-104 -223,-139 -178,-161 -100,-134 -265,-156 -43,567 107,816 -39,1068 -125,-8 -111,-12 -184,-85 -120,-139 -595,-612 -750,-536 69,158 322,486 488,593 8,5 22,13 32,19 107,70 231,211 313,294 271,273 482,477 774,729 114,99 297,357 497,389 41,-915 -77,-1308 664,-2057 96,-96 151,-167 237,-238 313,-259 433,-103 -107,-695 -6,-6 -14,-15 -20,-21 -6,-6 -15,-14 -20,-20 -186,-197 -111,-405 -291,-468 -120,246 69,1062 -395,810z"/>
   <path class="fil3" d="M7419 18331c-82,-83 -206,-224 -313,-294 -10,-6 -24,-14 -32,-19 -166,-107 -419,-435 -488,-593 176,-87 613,378 750,536 73,73 59,77 184,85 146,-252 -4,-501 39,-1068 165,22 87,-5 265,156 38,35 119,113 223,139 229,-232 88,-334 117,-835 276,-9 245,132 594,322 464,252 275,-564 395,-810 180,63 105,271 291,468 5,6 14,14 20,20 6,6 14,15 20,21 540,592 420,436 107,695 -86,71 -141,142 -237,238 -741,749 -623,1142 -664,2057 -200,-32 -383,-290 -497,-389 -292,-252 -503,-456 -774,-729z"/>
   <path class="fil4" d="M13695 11485c-501,103 -1883,1167 -2098,1439l74 159c2,4 11,26 13,21 2,-5 10,13 13,20l153 7c112,-337 1275,-1265 1873,-1335 206,-89 121,-79 393,-83 551,848 -463,2616 -448,2936 76,35 158,61 272,62 176,-539 502,-1151 591,-1867 47,-378 140,-1326 -367,-1425 -160,-31 -365,-4 -469,66zm-6194 8027l-425 -377c-141,-63 -358,-307 -469,-426 -404,-435 -768,-1016 -1035,-1573 -437,-913 -480,-1987 -444,-2983 218,78 165,233 521,373 56,22 71,24 119,46 54,25 59,28 92,51 -39,494 35,970 531,944 457,-508 -49,-968 -99,-1165 192,-104 278,-295 412,-484 290,25 117,206 912,271 27,252 -10,478 100,686 243,460 686,379 633,-248 -26,-315 -131,-344 -205,-557 6,-9 16,-20 21,-26l44 -46c156,-146 229,-115 523,-467 86,-102 145,-202 226,-326 86,-130 159,-192 37,-311 -153,52 -303,406 -432,546 -145,156 -303,319 -516,434 -242,132 -516,165 -817,71 -224,-70 -485,-314 -592,-332 -187,295 -240,535 -518,701 -385,229 -578,-101 -791,-264 -130,-121 -46,-12 -160,-99l0 -140c50,-1159 795,-2532 1658,-3252 868,-723 2062,-1299 3590,-1317 2074,-25 3656,1230 4625,2731 288,446 420,702 647,1208l173 418c482,39 203,-233 157,-477 112,-101 232,-155 358,-242 163,-112 209,-191 359,-246 89,129 79,261 86,447 5,157 8,319 5,475 -5,322 -28,616 -80,924 -94,563 -236,1046 -421,1503 -961,2383 -2657,4125 -5316,4450 -1273,222 -2484,-150 -3509,-921zm930 138c363,311 531,458 1222,383 596,-211 926,-394 1256,-846 795,-1088 278,-3976 8,-4435 -54,-92 -144,-207 -301,-206 -170,78 -225,224 -415,257 -260,184 -373,440 -1251,922l-421 209c-9,4 -19,8 -27,12 -448,189 -753,264 -1245,367 -432,38 -783,64 -1224,46 -144,-5 -281,-53 -427,2 -216,170 254,592 354,705 411,465 586,730 1065,1225l412 415c312,309 635,636 994,944z"/>
   <path class="fil3" d="M10294 15068c49,-113 228,-238 360,-254 141,178 393,1378 365,1705l-522 171c-60,-104 -225,-1492 -203,-1622z"/>
   <path class="fil2" d="M11850 13131l-153 -7c-3,-7 -11,-25 -13,-20 -2,5 -11,-17 -13,-21l-74 -159c215,-272 1597,-1336 2098,-1439 104,-70 309,-97 469,-66 507,99 414,1047 367,1425 -89,716 -415,1328 -591,1867 -114,-1 -196,-27 -272,-62 -15,-320 999,-2088 448,-2936 -648,8 -1945,977 -2266,1418z"/>
   <path class="fil5" d="M10070 15373c39,476 136,826 118,1349 -272,-45 -769,-640 -771,-1019 241,-69 362,-283 605,-398l48 68z"/>
   <path class="fil6" d="M5016 16525c-241,-109 -858,-1237 -864,-1541 216,-59 472,54 647,127l217 1414z"/>
   <path class="fil6" d="M7193 17588c-711,-682 -1429,-947 -380,-974l365 -21c105,210 312,1040 15,995z"/>
   <path class="fil6" d="M6283 15110c-268,-61 -268,-354 -208,-522 305,-14 272,337 208,522z"/>
   <path class="fil6" d="M7995 14686c-237,-15 -280,-320 -178,-526 228,22 278,354 178,526z"/>
   <path class="fil6" d="M7917 16710l14 120 -121 -24c-45,-68 -108,-115 -176,-173l-79 -59 -6 -107c264,20 369,-163 368,243z"/>
   <path class="fil5" d="M8716 16445l-248 -148c13,-154 141,-113 375,-182l-14 375 -113 -45z"/>
  </g>
 </g>
</svg>
