<?xml version="1.0" encoding="UTF-8"?>
<!DOCTYPE svg PUBLIC "-//W3C//DTD SVG 1.1//EN" "http://www.w3.org/Graphics/SVG/1.1/DTD/svg11.dtd">
<!-- Creator: CorelDRAW X7 -->
<svg xmlns="http://www.w3.org/2000/svg" xml:space="preserve" width="210mm" height="297mm" version="1.1" style="shape-rendering:geometricPrecision; text-rendering:geometricPrecision; image-rendering:optimizeQuality; fill-rule:evenodd; clip-rule:evenodd"
viewBox="0 0 21000 29700"
 xmlns:xlink="http://www.w3.org/1999/xlink">
 <defs>
  <style type="text/css">
   <![CDATA[
    .fil1 {fill:#050505}
    .fil5 {fill:#5D2502}
    .fil2 {fill:#B90102}
    .fil0 {fill:#D38554}
    .fil4 {fill:#FDFDFD}
    .fil3 {fill:#FED443}
   ]]>
  </style>
 </defs>
 <g id="Слой_x0020_1">
  <metadata id="CorelCorpID_0Corel-Layer"/>
  <g id="_2128763468208">
   <path class="fil0" d="M14141 15151c311,164 215,528 247,1030 29,440 232,812 -245,951 -628,182 -1595,-283 -2093,-473 -729,-279 -1449,-303 -2276,-166 -707,116 -1614,499 -2217,367 -214,-530 53,-555 -65,-1134 -307,-1513 588,-354 1028,-2 528,423 3153,314 3831,267 711,-50 601,-24 980,-398 125,-124 547,-570 810,-442zm-2910 -3619c263,237 402,60 1058,725 1160,1176 723,3200 -1197,2702 -1204,-312 -1110,-1093 -1160,-2463 -10,-269 -106,-564 -43,-832 120,-519 160,103 420,-359l650 -1100c-574,-376 -1539,37 -2060,156l426 1232c197,45 -44,-129 262,0 46,400 -104,814 -96,1267 7,402 -6,773 -117,1131 -578,1851 -2864,922 -2083,-878 160,-369 452,-928 737,-1194l368 -266c-125,-204 -425,-418 -659,-492 -490,694 -891,1322 -1152,2389 -175,712 -175,679 -501,1251 -1076,1888 430,2865 1772,2683 508,-69 886,-272 1390,-361 2198,-387 2990,927 4623,395 714,-233 1605,-1023 1420,-2041 -147,-812 -882,-1660 -1248,-2258 -220,-360 -339,-803 -537,-1211 -211,-433 -457,-754 -651,-1082 -717,56 -1165,202 -1622,606z"/>
   <path class="fil1" d="M11566 19679c-207,-875 1331,-1432 2165,-1319 562,77 1099,234 1309,862 578,1726 -3200,1612 -3474,457zm-3578 -1609c27,923 362,1256 1034,1607 -505,812 -2805,577 -3216,33 -833,-1101 1090,-1813 2182,-1640zm2458 1724c-865,-133 -1146,-253 -1778,-594 -22,-142 -56,-107 -175,-247 -300,-349 -312,-804 -151,-1229 1204,-371 2071,-487 3365,-61 639,211 826,227 904,507 -87,119 20,14 -103,95 -324,214 -1367,367 -1173,1552l-889 -23zm207 -7598c111,-216 165,-292 369,-436 2067,433 2341,3567 111,2975 -594,-158 -887,-480 -954,-1151 120,56 639,475 915,-290 241,-664 -196,-920 -441,-1098zm-1434 1436c-269,1456 -1566,1383 -1780,523 -216,-865 549,-2193 1169,-2260l253 277c-171,181 -345,94 -486,333 -102,173 -116,502 -87,719 80,597 461,642 931,408zm-2426 -2943c-48,-598 359,-1088 668,-1323 742,101 1379,1529 1545,2449l-843 -807c-492,-340 -703,-345 -1370,-319zm3762 1098c-78,-110 -60,-3 -45,-168 6,-57 49,-122 69,-158 336,-615 816,-1355 1354,-1792 1470,-1195 1605,555 1774,989 -761,99 -1024,-223 -1940,177 -527,230 -978,563 -1212,952zm676 -255c457,-404 905,-550 1622,-606 194,328 440,649 651,1082 198,408 317,851 537,1211 366,598 1101,1446 1248,2258 185,1018 -706,1808 -1420,2041 -1633,532 -2425,-782 -4623,-395 -504,89 -882,292 -1390,361 -1342,182 -2848,-795 -1772,-2683 326,-572 326,-539 501,-1251 261,-1067 662,-1695 1152,-2389 234,74 534,288 659,492l-368 266c-285,266 -577,825 -737,1194 -781,1800 1505,2729 2083,878 111,-358 124,-729 117,-1131 -8,-453 142,-867 96,-1267 -306,-129 -65,45 -262,0l-426 -1232c521,-119 1486,-532 2060,-156l-650 1100c-260,462 -300,-160 -420,359 -63,268 33,563 43,832 50,1370 -44,2151 1160,2463 1920,498 2357,-1526 1197,-2702 -656,-665 -795,-488 -1058,-725zm-3914 -2532c-720,724 -982,1152 -765,2172 391,-119 345,-212 857,-173 -58,246 -356,550 -506,820 -157,284 -290,573 -400,867 -394,1051 -92,873 -682,1913 -1435,2532 977,3069 1186,3235 -2075,442 -1878,1833 -1123,2276 906,533 2964,469 3382,-311 876,185 1194,268 2178,270 44,18 239,620 1808,694 2610,121 2396,-1680 1515,-2296 -907,-636 -1775,-165 -1919,-417 307,-232 1283,42 2167,-896 1481,-1570 -20,-2959 -712,-4134 -189,-321 -318,-736 -478,-1093 -223,-500 -493,-752 -496,-980l746 201c17,-758 -395,-1961 -879,-2153 -803,-318 -1698,649 -1993,891 -1615,-279 -1278,-103 -2503,207 -221,-450 -710,-1028 -1383,-1093z"/>
   <path class="fil2" d="M11566 19679c274,1155 4052,1269 3474,-457 -210,-628 -747,-785 -1309,-862 -834,-113 -2372,444 -2165,1319z"/>
   <path class="fil3" d="M10446 19794l889 23c-194,-1185 849,-1338 1173,-1552 123,-81 16,24 103,-95 -78,-280 -265,-296 -904,-507 -1294,-426 -2161,-310 -3365,61 -161,425 -149,880 151,1229 119,140 153,105 175,247 632,341 913,461 1778,594z"/>
   <path class="fil2" d="M7988 18070c-1092,-173 -3015,539 -2182,1640 411,544 2711,779 3216,-33 -672,-351 -1007,-684 -1034,-1607z"/>
   <path class="fil4" d="M11094 13294c-276,765 -795,346 -915,290 67,671 360,993 954,1151 2230,592 1956,-2542 -111,-2975 -204,144 -258,220 -369,436 245,178 682,434 441,1098z"/>
   <path class="fil1" d="M12712 16595c321,-315 1036,-1206 1358,-1180 84,369 95,1128 -31,1476 -311,81 -915,-39 -1221,-217l-106 -79zm-794 -309l737 -64c-55,180 -88,269 -302,267 -176,-1 -329,-93 -435,-203zm-4250 -951c257,114 999,872 1162,1075l-886 274 -276 -1349zm2106 1158c827,-137 1547,-113 2276,166 498,190 1465,655 2093,473 477,-139 274,-511 245,-951 -32,-502 64,-866 -247,-1030 -263,-128 -685,318 -810,442 -379,374 -269,348 -980,398 -678,47 -3303,156 -3831,-267 -440,-352 -1335,-1511 -1028,2 118,579 -149,604 65,1134 603,132 1510,-251 2217,-367z"/>
   <path class="fil5" d="M10555 11787c234,-389 685,-722 1212,-952 916,-400 1179,-78 1940,-177 -169,-434 -304,-2184 -1774,-989 -538,437 -1018,1177 -1354,1792 -20,36 -63,101 -69,158 -15,165 -33,58 45,168z"/>
   <path class="fil4" d="M9219 13632c-470,234 -851,189 -931,-408 -29,-217 -15,-546 87,-719 141,-239 315,-152 486,-333l-253 -277c-620,67 -1385,1395 -1169,2260 214,860 1511,933 1780,-523z"/>
   <path class="fil5" d="M6793 10689c667,-26 878,-21 1370,319l843 807c-166,-920 -803,-2348 -1545,-2449 -309,235 -716,725 -668,1323z"/>
   <path class="fil4" d="M12818 16674c306,178 910,298 1221,217 126,-348 115,-1107 31,-1476 -322,-26 -1037,865 -1358,1180l106 79z"/>
   <path class="fil4" d="M7944 16684l886 -274c-163,-203 -905,-961 -1162,-1075l276 1349z"/>
   <path class="fil2" d="M12655 16222l-737 64c106,110 259,202 435,203 214,2 247,-87 302,-267z"/>
  </g>
 </g>
</svg>
