<?xml version="1.0" encoding="UTF-8"?>
<!DOCTYPE svg PUBLIC "-//W3C//DTD SVG 1.1//EN" "http://www.w3.org/Graphics/SVG/1.1/DTD/svg11.dtd">
<!-- Creator: CorelDRAW X7 -->
<svg xmlns="http://www.w3.org/2000/svg" xml:space="preserve" width="210mm" height="297mm" version="1.1" style="shape-rendering:geometricPrecision; text-rendering:geometricPrecision; image-rendering:optimizeQuality; fill-rule:evenodd; clip-rule:evenodd"
viewBox="0 0 21000 29700"
 xmlns:xlink="http://www.w3.org/1999/xlink">
 <defs>
  <style type="text/css">
   <![CDATA[
    .fil4 {fill:#181717}
    .fil1 {fill:#1A69A9}
    .fil3 {fill:#885637}
    .fil2 {fill:#C21D36}
    .fil0 {fill:#E5B892}
    .fil6 {fill:#E5DF92}
    .fil5 {fill:#FBDA09}
   ]]>
  </style>
 </defs>
 <g id="Слой_x0020_1">
  <metadata id="CorelCorpID_0Corel-Layer"/>
  <g id="_2128802757392">
   <path class="fil0" d="M14646 10696l-2077 26 -23 1348 -661 3 2 -1354 -2096 -3 1 668 -695 -10 -2 732 679 -7c50,191 56,477 -6,662l-1350 21 -20 694 43 674 4140 26 1356 -7c42,-138 61,-687 -83,-805 147,11 313,-109 462,-108 361,2 335,240 375,209l-2808 -7 11 -666 682 -30 30 -661 654 0 20 686 1388 2 -6 -888c-16,-188 24,-282 -19,-514l-1318 -25 -45 -617c271,-18 1212,48 1366,-49z"/>
   <path class="fil1" d="M9145 16192l683 24 3 727 -728 -1 -31 -657 -509 -32c-239,38 -154,210 -159,647l3 616c-2,12 -7,29 -9,38 -2,9 -6,25 -11,37l-658 33 -16 712 0 646 1413 27 685 -11 8 -680 1364 11 20 672 2066 -19 -5 -1351 -665 -10 -17 -728 5 -630 -671 -53 -28 730c-139,12 -248,7 -370,8 -346,2 -349,7 -347,-358 0,-142 -2,-253 15,-375l638 -9c131,-205 39,-1645 38,-2035l-662 30 -34 1333c-1612,124 -1366,18 -1360,-681 2,-226 2,-452 1,-685l-689 17c-1,336 -74,1859 27,2007z"/>
   <path class="fil2" d="M6333 16223l1393 8 -1 665 679 4c5,-437 -80,-609 159,-647l509 32 -27 -88 100 -5c-101,-148 -28,-1671 -27,-2007l689 -17c1,233 1,459 -1,685 -6,699 -252,805 1360,681l34 -1333 662 -30c1,390 93,1830 -38,2035l92 4 671 53 -5 630 666 15 27 -646c262,-85 1052,-32 1378,-31l15 -683 -552 -14c-209,-33 -123,-345 -149,-688l-1374 -1 -12 -669 -4140 -26 -726 9 -16 680 -690 39 -22 660 -678 15 24 670z"/>
   <polygon class="fil2" points="7714,10705 9791,10716 11887,10719 12569,10722 14646,10696 14676,10018 12608,10007 12583,9332 8416,9314 8397,9987 7715,10011 "/>
   <polygon class="fil3" points="13291,18987 13269,18982 11203,19001 11867,19010 11874,20386 14671,20385 14687,19688 13978,19665 13956,18993 "/>
   <path class="fil0" d="M12582 16893l17 728 665 10 5 1351 22 5 16 -667 1361 -9 -15 -2080c-326,-1 -1116,-54 -1378,31l-27 646 -666 -15z"/>
   <polygon class="fil3" points="9126,19009 7713,18982 7014,18996 6994,19678 6315,19699 6326,20385 9114,20376 "/>
   <path class="fil0" d="M7713 18336l16 -712 658 -33c5,-12 9,-28 11,-37 2,-9 7,-26 9,-38l-3 -616 -679 -4 1 -665 -1393 -8 3 2087 1377 26z"/>
   <path class="fil3" d="M7711 11379l710 12 -3 1391 1350 -21c62,-185 56,-471 6,-662l-679 7 2 -732 695 10 -1 -668 -2077 -11 -3 674z"/>
   <polygon class="fil4" points="14691,13465 14668,12789 13280,12787 13260,12101 12606,12101 12576,12762 11894,12792 11883,13458 "/>
   <path class="fil3" d="M8398 13476l20 -694 -714 8 7 -1411 -687 7c-35,275 -46,1858 12,2078l1362 12z"/>
   <polygon class="fil0" points="8418,12782 8421,11391 7711,11379 7704,12790 "/>
   <polygon class="fil4" points="12569,10722 11887,10719 11885,12073 12546,12070 "/>
   <path class="fil5" d="M9137 16864c198,55 442,53 645,9 -8,-136 -1,-205 1,-333 3,-206 0,-149 -52,-253l-587 -1 -7 578z"/>
   <path class="fil5" d="M11250 16298c-48,207 -37,368 -11,574 249,18 442,37 582,-42l21 -522 -592 -10z"/>
   <path class="fil6" d="M11842 16308l-21 522c-140,79 -333,60 -582,42 -26,-206 -37,-367 11,-574l592 10zm74 -98l-92 -4 -638 9c-17,122 -15,233 -15,375 -2,365 1,360 347,358 122,-1 231,4 370,-8l28 -730z"/>
   <path class="fil6" d="M9144 16286l587 1c52,104 55,47 52,253 -2,128 -9,197 -1,333 -203,44 -447,46 -645,-9l7 -578zm-72 -1l31 657 728 1 -3 -727 -683 -24 -100 5 27 88z"/>
  </g>
 </g>
</svg>
