<?xml version="1.0" encoding="UTF-8"?>
<!DOCTYPE svg PUBLIC "-//W3C//DTD SVG 1.1//EN" "http://www.w3.org/Graphics/SVG/1.1/DTD/svg11.dtd">
<!-- Creator: CorelDRAW X7 -->
<svg xmlns="http://www.w3.org/2000/svg" xml:space="preserve" width="210mm" height="297mm" version="1.1" style="shape-rendering:geometricPrecision; text-rendering:geometricPrecision; image-rendering:optimizeQuality; fill-rule:evenodd; clip-rule:evenodd"
viewBox="0 0 21000 29700"
 xmlns:xlink="http://www.w3.org/1999/xlink">
 <defs>
  <style type="text/css">
   <![CDATA[
    .fil0 {fill:#020404}
    .fil3 {fill:#54D109}
    .fil2 {fill:#830201}
    .fil4 {fill:#F12911}
    .fil5 {fill:#F8B2A8}
    .fil1 {fill:#FBFBFB}
   ]]>
  </style>
 </defs>
 <g id="Слой_x0020_1">
  <metadata id="CorelCorpID_0Corel-Layer"/>
  <g id="_2128761330464">
   <path class="fil0" d="M9566 21539c-39,-590 -162,-687 181,-1093 383,88 249,185 878,185 2461,-1 1700,-65 2727,696 -189,165 -550,250 -812,467 -384,319 -315,425 -996,370 -1662,-135 -359,1027 -1950,503 -47,-1213 81,-836 506,-1481 -323,157 -295,221 -534,353zm-5983 287c147,-169 181,-257 352,-414 142,-130 235,-150 371,-325l708 -205c-167,-642 -600,-454 -870,-997 758,88 1320,319 1989,446 291,218 762,307 1141,617l819 873c6,-13 28,28 44,39 -44,-787 -881,-1880 -1247,-2282 -984,-1079 -1811,-2470 -1620,-4001 92,-731 712,-1803 1305,-2265 406,-318 578,-349 1036,-639 222,-2327 1171,-3615 2518,-4568 770,-546 1544,-711 2449,-1056 855,-327 1116,-1103 2392,-1177 2155,-126 3882,1190 3637,3410 -112,1021 -463,1800 -874,2618 -194,385 -413,760 -664,1094 -159,211 -223,259 -72,588 123,266 118,193 187,219l322 60c-74,506 -336,449 -145,955 127,335 211,674 573,687l-13 526c906,626 648,2412 137,3206 -308,480 -854,978 -1639,1095 -2208,25 -1905,-378 -3660,-1442 -890,-539 -1813,-398 -3081,-1334 -1771,-1309 -1581,-2256 -2021,-3012 -553,139 -913,796 -881,1531 38,868 844,1578 1389,2080 212,195 340,398 524,621 364,441 602,867 743,1547 143,-51 88,8 206,-147 526,16 278,154 832,198 283,22 626,-13 920,-15 481,7 1051,135 1450,173l543 557c204,123 504,203 736,269 -24,202 89,61 -63,134 -841,-14 -1220,331 -1614,721l-215 211 -1218 -13c-648,625 -157,762 -1371,590 -242,341 27,372 -502,762 -257,59 -616,116 -902,35 -382,-108 -273,-287 -316,-672 -546,-103 -1112,-109 -1543,172 -347,130 -423,452 -795,352 -265,-71 -480,-379 -733,-499 -570,-271 -1385,54 -2007,60l0 0 -6 0 -22 0 -442 0c0,-1443 175,-183 1213,-1383zm-743 897l0 197c559,8 1071,-47 1621,-42 774,6 737,258 1215,553 485,-224 539,-415 1231,-561 646,-137 959,29 1565,29 -95,-381 -489,-732 -871,-910 -626,-291 -873,-178 -1442,-317 756,-129 946,40 1605,239 -116,-420 -254,-399 -584,-643 -532,-394 -1746,-987 -2394,-994 218,298 342,196 438,681 -685,418 -794,192 -1327,883 -212,274 -620,741 -1057,885zm13100 -4575c696,-1466 201,-594 508,-1591l1140 -594c-131,512 -310,936 -520,1371 -261,539 -386,817 -1128,814zm450 -1983c43,-190 77,-261 172,-408 119,-183 -3,-88 238,-203 227,440 -39,501 -410,611zm-1934 1395c-194,-108 -333,-223 -514,-384 -295,-262 -372,-237 -517,-496l1726 -1101c-88,431 -496,1697 -695,1981zm2648 -2636c80,134 152,328 220,478 139,306 139,253 -144,360 -106,-131 -155,-233 -195,-418 -99,-452 105,-407 119,-420zm-1191 -133c303,-243 728,-537 1252,-636 -291,565 -541,1098 -937,1590l-315 -954zm-4550 44c645,-114 1214,-483 1773,-725 -71,414 -540,1363 -802,1695 -268,-190 -776,-670 -971,-970zm-3161 8396c16,-10 42,-14 55,-18l345 -98c269,-184 -100,-368 -162,-1028 -63,-672 -137,-1015 -456,-1548 -702,-1171 -2961,-3047 -2252,-5389 249,-820 1152,-1877 1856,-2104l40 1177c-553,278 -617,297 -886,777 -214,380 -337,853 -252,1322 293,1605 2236,2098 2643,4062 118,570 301,2680 -18,3014 -160,141 -262,161 -547,146 -351,-18 -342,-23 -366,-313zm2883 -10058c372,49 767,250 1221,317 443,65 790,100 964,-188l77 -177c4,-33 13,-43 24,-62 1315,569 1927,955 2415,2270 226,608 397,1305 189,1963 -346,1089 -526,731 -1246,470l600 -1875c190,-677 40,-503 -15,-555 -294,-277 -1793,1207 -2145,1141 -99,-18 -555,-426 -612,-483 197,-458 483,-805 828,-1659 207,-513 122,-452 70,-572 -338,-92 -1697,773 -2341,831 -374,-529 -453,-820 -29,-1421zm165 -302c112,-249 394,-755 597,-986 240,161 1025,1054 1169,1374 -594,13 -1376,-64 -1766,-388zm5574 1075c-85,44 136,114 -157,42 -117,-29 -157,-144 -238,-370 -164,-464 288,-1265 525,-1662l330 70c-140,447 -449,730 -602,958 -272,404 156,659 142,962zm-478 -2675c92,-339 240,-470 529,-578 247,264 340,719 405,1138 -430,-82 -767,-234 -934,-560zm-3895 -343c139,-330 437,-820 691,-1027 266,251 716,1052 836,1471 -594,-80 -1013,-315 -1527,-444zm5138 -539c-346,-85 -1069,-478 -1176,-646 -264,-411 257,-821 691,-864 369,380 454,838 485,1510zm-3850 -1251c168,-274 695,-741 1079,-890 521,411 710,987 717,1899 -561,-203 -1474,-666 -1796,-1009zm1980 1276c184,-256 46,-939 -46,-1293 -139,-539 -445,-657 -568,-974 515,-451 1586,251 1742,457 -387,349 -814,410 -732,1143 303,356 427,388 833,603 -226,297 -601,200 -767,750 -145,482 358,584 532,780 -58,226 -363,784 -502,1079 -239,506 21,775 180,1205 -104,109 -355,312 -506,397 -198,-130 -288,-354 -410,-519 -1054,-1412 -2529,-1051 -3496,-2390 78,-216 176,-325 325,-505 543,62 1382,604 1921,445 177,-588 -727,-1510 -933,-1932l231 -280c242,38 63,-10 298,140l1388 753c552,247 398,252 510,141zm2148 5980c903,1193 88,3052 -951,3530 -1852,852 -3985,-1190 -5110,-2365 -443,-463 -797,-800 -1250,-1338 -869,-1032 -1172,-2528 -572,-4070 499,-1282 1075,-2502 1758,-3500 444,-648 1877,-2115 2777,-2399 1581,-498 3176,456 3654,1436 664,1362 -184,3022 -656,4046 -109,-114 -28,1 -105,-155 -11,-21 -38,-90 -46,-114 -20,-56 -56,-230 -76,-305 -77,-291 -100,-278 -104,-596l504 54c9,-20 39,-5 57,-11 116,-546 -74,-1287 -345,-1690 -577,-859 -991,-633 -1116,-979l807 279c-530,-629 -1965,-526 -2668,-81 -1266,800 -2295,2532 -3077,3779 -1198,1910 -1485,2438 737,4220l1902 1528c3392,2425 3314,-718 3880,-1269zm-8307 -1286c189,407 371,772 620,1107 119,161 297,393 407,509 242,255 261,167 422,489l1050 946c109,119 24,4 123,163 -1247,-207 -2750,-1079 -3125,-1819 -572,-328 -1097,-1885 -1117,-2828l24 -900c79,-950 77,-1836 658,-2407 197,-603 948,-1425 1405,-1699 113,-89 145,-142 265,-234 476,-411 1273,-890 2047,-1057 -165,302 -406,492 -629,784 -977,1282 -1838,2972 -2278,4581 -292,1068 0,1458 128,2365z"/>
   <path class="fil1" d="M17867 16394c-566,551 -488,3694 -3880,1269l-1902 -1528c-2222,-1782 -1935,-2310 -737,-4220 782,-1247 1811,-2979 3077,-3779 703,-445 2138,-548 2668,81l-807 -279c125,346 539,120 1116,979 271,403 461,1144 345,1690 -18,6 -48,-9 -57,11l-504 -54c4,318 27,305 104,596 20,75 56,249 76,305 8,24 35,93 46,114 77,156 -4,41 105,155 472,-1024 1320,-2684 656,-4046 -478,-980 -2073,-1934 -3654,-1436 -900,284 -2333,1751 -2777,2399 -683,998 -1259,2218 -1758,3500 -600,1542 -297,3038 572,4070 453,538 807,875 1250,1338 1125,1175 3258,3217 5110,2365 1039,-478 1854,-2337 951,-3530z"/>
   <path class="fil2" d="M15105 8147c123,317 429,435 568,974 92,354 230,1037 46,1293 -112,111 42,106 -510,-141l-1388 -753c-235,-150 -56,-102 -298,-140l-231 280c206,422 1110,1344 933,1932 -539,159 -1378,-383 -1921,-445 -149,180 -247,289 -325,505 967,1339 2442,978 3496,2390 122,165 212,389 410,519 151,-85 402,-288 506,-397 -159,-430 -419,-699 -180,-1205 139,-295 444,-853 502,-1079 -174,-196 -677,-298 -532,-780 166,-550 541,-453 767,-750 -406,-215 -530,-247 -833,-603 -82,-733 345,-794 732,-1143 -156,-206 -1227,-908 -1742,-457z"/>
   <path class="fil3" d="M8202 23231c24,290 15,295 366,313 285,15 387,-5 547,-146 319,-334 136,-2444 18,-3014 -407,-1964 -2350,-2457 -2643,-4062 -85,-469 38,-942 252,-1322 269,-480 333,-499 886,-777l-40 -1177c-704,227 -1607,1284 -1856,2104 -709,2342 1550,4218 2252,5389 319,533 393,876 456,1548 62,660 431,844 162,1028l-345 98c-13,4 -39,8 -55,18z"/>
   <path class="fil4" d="M10292 8435c389,0 481,25 474,472 -8,545 -519,1737 -1018,1270 -412,-376 133,-1195 279,-1508 -457,274 -1208,1096 -1405,1699 656,1134 -23,1805 -490,2658 -13,-16 -33,-37 -41,-48l-127 -203 -24 900c510,169 652,693 802,1234 133,480 352,1059 315,1594 375,740 1878,1612 3125,1819 -99,-159 -14,-44 -123,-163l-1050 -946c-539,354 -1117,-348 -1294,-607 -128,-187 -270,-467 -325,-724 -85,-389 -61,-617 170,-774 -128,-907 -420,-1297 -128,-2365 440,-1609 1301,-3299 2278,-4581 223,-292 464,-482 629,-784 -774,167 -1571,646 -2047,1057z"/>
   <path class="fil5" d="M11085 13173c-424,601 -345,892 29,1421 644,-58 2003,-923 2341,-831 52,120 137,59 -70,572 -345,854 -631,1201 -828,1659 57,57 513,465 612,483 352,66 1851,-1418 2145,-1141 55,52 205,-122 15,555l-600 1875c720,261 900,619 1246,-470 208,-658 37,-1355 -189,-1963 -488,-1315 -1100,-1701 -2415,-2270 -11,19 -20,29 -24,62l-77 177c-174,288 -521,253 -964,188 -454,-67 -849,-268 -1221,-317z"/>
   <path class="fil3" d="M2705 22756l0 161c613,20 1162,-44 1756,-39 774,6 737,258 1215,553 485,-224 539,-415 1231,-561 646,-137 959,29 1565,29 -95,-381 -489,-732 -871,-910 -626,-291 -873,-178 -1442,-317 756,-129 946,40 1605,239 -116,-420 -254,-399 -584,-643 -532,-394 -1746,-987 -2394,-994 218,298 342,196 438,681 -685,418 -794,192 -1327,883 -233,302 -705,838 -1192,918z"/>
   <path class="fil3" d="M9566 21539c239,-132 211,-196 534,-353 -425,645 -553,268 -506,1481 1591,524 288,-638 1950,-503 681,55 612,-51 996,-370 262,-217 623,-302 812,-467 -1027,-761 -266,-697 -2727,-696 -629,0 -495,-97 -878,-185 -343,406 -220,503 -181,1093z"/>
   <path class="fil1" d="M13739 9138c322,343 1235,806 1796,1009 -7,-912 -196,-1488 -717,-1899 -384,149 -911,616 -1079,890z"/>
   <path class="fil1" d="M15940 18148c742,3 867,-275 1128,-814 210,-435 389,-859 520,-1371l-1140 594c-307,997 188,125 -508,1591z"/>
   <path class="fil1" d="M10027 8669c-146,313 -691,1132 -279,1508 499,467 1010,-725 1018,-1270 7,-447 -85,-472 -474,-472 -120,92 -152,145 -265,234z"/>
   <path class="fil1" d="M14456 17560c199,-284 607,-1550 695,-1981l-1726 1101c145,259 222,234 517,496 181,161 320,276 514,384z"/>
   <path class="fil1" d="M7964 12775l127 203c8,11 28,32 41,48 467,-853 1146,-1524 490,-2658 -581,571 -579,1457 -658,2407z"/>
   <path class="fil1" d="M11009 17213c-161,-322 -180,-234 -422,-489 -110,-116 -288,-348 -407,-509 -249,-335 -431,-700 -620,-1107 -231,157 -255,385 -170,774 55,257 197,537 325,724 177,259 755,961 1294,607z"/>
   <path class="fil1" d="M9057 16503c37,-535 -182,-1114 -315,-1594 -150,-541 -292,-1065 -802,-1234 20,943 545,2500 1117,2828z"/>
   <path class="fil1" d="M11363 14835c195,300 703,780 971,970 262,-332 731,-1281 802,-1695 -559,242 -1128,611 -1773,725z"/>
   <path class="fil1" d="M11250 12871c390,324 1172,401 1766,388 -144,-320 -929,-1213 -1169,-1374 -203,231 -485,737 -597,986z"/>
   <path class="fil1" d="M17589 10389c-31,-672 -116,-1130 -485,-1510 -434,43 -955,453 -691,864 107,168 830,561 1176,646z"/>
   <path class="fil1" d="M12451 10928c514,129 933,364 1527,444 -120,-419 -570,-1220 -836,-1471 -254,207 -552,697 -691,1027z"/>
   <path class="fil1" d="M15913 14791l315 954c396,-492 646,-1025 937,-1590 -524,99 -949,393 -1252,636z"/>
   <path class="fil1" d="M16346 11271c167,326 504,478 934,560 -65,-419 -158,-874 -405,-1138 -289,108 -437,239 -529,578z"/>
   <path class="fil1" d="M16824 13946c14,-303 -414,-558 -142,-962 153,-228 462,-511 602,-958l-330 -70c-237,397 -689,1198 -525,1662 81,226 121,341 238,370 293,72 72,2 157,-42z"/>
   <path class="fil1" d="M17180 15762c283,-107 283,-54 144,-360 -68,-150 -140,-344 -220,-478 -14,13 -218,-32 -119,420 40,185 89,287 195,418z"/>
   <path class="fil2" d="M16390 16165c371,-110 637,-171 410,-611 -241,115 -119,20 -238,203 -95,147 -129,218 -172,408z"/>
  </g>
 </g>
</svg>
